PathFileType  4	(X/Y/Z) C:\Users\antoi\Documents\MyRepositories\mobilecap\ResultsAnalysis
DataRate	CameraRate	NumFrames	NumMarkers	Units	OrigDataRate	OrigDataStartFrame	OrigNumFrames
100.0	100.0	4	51	mm	100.0	1154	1318
Frame#	Time	r_knee			r_shank_antsup			r_ankle			r_calc			r_5meta			r_toe			L_knee			L_shank_antsup			L_ankle			L_calc			L_5meta			L_toe			r_sh2			r_sh3			r_sh4			L_sh2			L_sh3			r_thigh1			r_thigh2			r_thigh3			r_thigh4			r_thigh5			L_thigh1			L_thigh2			L_thigh3			L_thigh4			r.ASIS			r.PSIS			L.ASIS			L.PSIS			C7			R_Shoulder			L_Shoulder			R_Sternum			L_Sternum			R_humerus			R_elbow_med			R_elbow_lat			R_forearm			R_wrist_radius			R_wrist_ulna			L_humerus			L_elbow_med			L_elbow_lat			L_forearm			L_wrist_radius			L_wrist_ulna			R_HJC			L_HJC			R_HJC_reg			L_HJC_reg			
		X1	Y1	Z1	X2	Y2	Z2	X3	Y3	Z3	X4	Y4	Z4	X5	Y5	Z5	X6	Y6	Z6	X7	Y7	Z7	X8	Y8	Z8	X9	Y9	Z9	X10	Y10	Z10	X11	Y11	Z11	X12	Y12	Z12	X13	Y13	Z13	X14	Y14	Z14	X15	Y15	Z15	X16	Y16	Z16	X17	Y17	Z17	X18	Y18	Z18	X19	Y19	Z19	X20	Y20	Z20	X21	Y21	Z21	X22	Y22	Z22	X23	Y23	Z23	X24	Y24	Z24	X25	Y25	Z25	X26	Y26	Z26	X27	Y27	Z27	X28	Y28	Z28	X29	Y29	Z29	X30	Y30	Z30	X31	Y31	Z31	X32	Y32	Z32	X33	Y33	Z33	X34	Y34	Z34	X35	Y35	Z35	X36	Y36	Z36	X37	Y37	Z37	X38	Y38	Z38	X39	Y39	Z39	X40	Y40	Z40	X41	Y41	Z41	X42	Y42	Z42	X43	Y43	Z43	X44	Y44	Z44	X45	Y45	Z45	X46	Y46	Z46	X47	Y47	Z47	X48	Y48	Z48	X49	Y49	Z49	X50	Y50	Z50	X51	Y51	Z51	

1154	11.53000000	-89.97483	439.91929	-376.19712	-49.26244	360.17559	-396.19378	-256.81055	95.03972	-420.75596	-332.98110	64.22250	-457.01234	-164.12540	44.93486	-379.89259	-113.89118	67.61247	-435.52197	-231.11975	476.94222	-946.72758	-187.26390	397.61326	-997.49173	-294.34095	102.76170	-1004.80190	-344.80234	60.01252	-950.99958	-202.65676	53.63418	-1074.87258	-151.67920	85.17254	-1035.04489	-117.58215	266.86356	-384.02642	-112.04492	402.13137	-361.30789	-177.38910	309.11466	-366.23097	-266.39934	420.14523	-960.99089	-297.93097	303.25541	-986.10051	-339.42234	637.33129	-383.33549	-244.11794	581.66997	-379.25611	-248.31575	525.30198	-344.14469	-392.78534	541.83220	-351.25655	-288.70540	487.10252	-351.05775	-444.96448	596.27282	-824.62450	-329.92514	559.47354	-888.46381	-463.91622	483.83397	-790.65731	-348.73554	455.33825	-868.55379	-352.62411	609.09402	-462.55540	-484.87712	742.10527	-524.67217	-396.49433	583.66845	-695.97722	-500.40011	739.48168	-614.05135	-148.78653	956.15697	-611.15643	-36.62603	904.80149	-483.30439	-61.99998	915.87857	-755.10373	-40.83152	842.64584	-593.31336	-44.16825	841.06559	-632.41994	20.62187	844.13983	-397.91744	109.92190	641.22809	-391.36874	137.89936	697.97529	-336.35398	146.94141	788.70849	-440.03912	149.48469	861.71578	-540.07775	184.49736	866.49306	-546.50946	-15.56634	871.38834	-835.73311	105.64688	668.67957	-866.68893	107.62488	737.95437	-921.48290	112.54145	797.97266	-831.87052	137.19330	870.52603	-707.72043	169.23478	879.40314	-718.68788	-458.99070	587.23839	-458.62582	-496.11279	572.06733	-661.16417	-456.42010	585.20384	-477.26964	-483.38493	580.64660	-632.53096	
1155	11.54000000	-90.03688	439.42470	-374.94034	-49.02900	359.52721	-395.11795	-256.82262	94.97806	-420.74646	-332.92880	64.26729	-457.05652	-164.15541	44.91394	-379.82852	-113.87748	67.60265	-435.48807	-228.71331	476.15089	-946.95258	-184.99331	396.81425	-997.47635	-293.91155	102.80569	-1004.86178	-344.61390	60.10765	-951.05535	-202.38862	53.34996	-1074.76445	-151.32139	84.61988	-1034.79464	-117.79641	266.83029	-383.12336	-110.89217	401.52329	-360.28227	-177.31205	308.71919	-365.62481	-264.07466	419.88536	-961.29870	-296.24455	302.92682	-986.51700	-340.73231	634.69486	-383.75843	-245.09673	579.94972	-378.87581	-249.11340	523.50008	-343.85371	-393.68681	539.03627	-351.54146	-289.34460	484.96065	-350.99299	-443.51860	594.08649	-825.29900	-328.17124	557.89674	-888.56869	-462.30936	481.24266	-791.56730	-346.58884	453.62545	-869.24429	-354.02332	605.56620	-462.82647	-485.74653	738.71222	-525.61768	-396.52600	580.09864	-696.25715	-500.72989	736.10749	-614.96005	-148.31024	952.86899	-610.43869	-36.38287	900.88380	-482.38616	-61.17960	912.17775	-754.35360	-40.58997	838.93968	-592.42174	-43.78902	837.32995	-631.83757	20.48474	839.92166	-396.85199	109.36759	636.75046	-390.06192	137.12670	693.49797	-334.89532	146.48964	784.20252	-438.65215	149.20110	857.03673	-538.80697	184.30305	861.96663	-544.94763	-14.78959	867.54002	-834.91726	105.69552	664.48975	-865.63010	108.08197	733.73062	-920.39277	112.85144	793.57076	-830.85611	137.24404	865.83370	-706.35747	169.32624	874.62004	-717.23039	-460.39726	583.83026	-459.35318	-496.39754	568.65607	-662.09419	-457.70463	581.79228	-478.10952	-483.74368	577.26568	-633.37288	
1156	11.55000000	-90.20195	438.92661	-373.85537	-48.80676	359.09027	-394.00620	-256.84803	94.96285	-420.73643	-332.90385	64.33932	-457.12509	-164.19787	44.87080	-379.74269	-113.86168	67.63905	-435.45512	-226.32382	475.36555	-946.94857	-182.73287	396.06121	-997.19498	-293.43433	102.81518	-1004.84944	-344.36770	60.18734	-951.12623	-202.03471	52.96112	-1074.52656	-150.87976	84.02615	-1034.50028	-117.90933	266.63609	-382.25468	-110.69671	400.95091	-359.44451	-177.19622	308.36813	-364.89940	-261.77441	419.51865	-961.42522	-294.44823	302.93059	-986.57432	-341.97164	632.29320	-384.13512	-246.34236	578.22182	-378.47808	-250.04880	521.77040	-343.68687	-394.57747	536.39174	-351.95600	-289.95723	482.84983	-351.46944	-442.33422	591.91072	-825.93207	-326.42401	556.31424	-888.76961	-460.70803	478.71940	-792.77337	-344.48216	451.73207	-869.73115	-355.36136	602.11486	-463.09200	-486.48853	735.44396	-526.58344	-396.57230	576.52529	-696.52098	-500.95965	732.82676	-615.89663	-147.63324	949.47086	-609.85692	-36.20753	897.15605	-481.59977	-60.38980	908.67537	-753.56199	-40.29407	835.42529	-591.43667	-43.41717	833.82848	-631.22581	20.35032	835.90536	-395.91873	109.18822	632.48335	-388.45278	136.34951	689.43629	-333.64692	145.99805	780.00256	-437.31855	148.92309	852.65819	-537.51973	184.10145	857.67894	-543.59648	-13.91291	863.84856	-834.08722	105.96504	660.63467	-864.49108	108.55716	729.85197	-919.29666	113.46834	789.23659	-829.39408	137.62581	860.87368	-703.99783	169.46633	870.19794	-715.80447	-461.75484	580.56162	-460.04986	-496.68874	565.31574	-662.97228	-458.94664	578.50682	-478.90969	-484.10349	573.95700	-634.17368	
1157	11.56000000	-90.33641	438.52399	-372.84470	-48.67730	358.78033	-392.76711	-256.85383	94.93124	-420.71644	-332.91050	64.33890	-457.14406	-164.23392	44.84056	-379.63324	-113.85556	67.62987	-435.37418	-223.98443	474.49666	-946.81551	-180.45885	395.34426	-996.93865	-292.89045	102.82310	-1004.75257	-344.13792	60.23128	-951.15592	-201.68050	52.53381	-1074.31654	-150.41817	83.37292	-1034.27779	-117.80983	266.28613	-381.41780	-110.81494	400.52133	-358.67924	-177.21096	308.05307	-364.18186	-259.49187	419.14655	-961.54364	-292.62125	302.86034	-986.53254	-343.24518	630.22770	-384.22413	-247.48367	576.70500	-378.26077	-250.96117	520.14242	-343.51889	-395.41481	533.93944	-352.50948	-290.45854	481.01865	-351.68977	-441.32161	589.75127	-826.61632	-324.67499	554.73880	-889.13238	-459.06533	476.33272	-794.26524	-342.41488	449.80090	-870.13466	-356.56301	598.92923	-463.38945	-487.10062	732.39412	-527.65144	-396.50142	573.08539	-696.82350	-501.06979	729.71532	-616.94820	-147.01318	946.24676	-609.28957	-36.14236	893.72869	-480.85948	-59.68320	905.41364	-752.79439	-39.93642	832.05568	-590.52778	-43.08899	830.60220	-630.64814	20.19080	832.23396	-394.95951	108.39652	628.64619	-386.78447	135.62356	685.70083	-332.48927	145.45539	776.10860	-436.07300	148.64345	848.64023	-536.30549	183.86804	853.68992	-542.35244	-12.99200	860.42935	-833.33576	106.26937	656.92901	-863.63433	109.21184	726.26390	-918.22945	114.32749	785.19943	-827.67560	137.93780	856.38929	-701.93007	169.55424	866.20274	-714.51339	-462.97514	577.55163	-460.77768	-496.85216	562.12047	-663.86462	-460.05471	575.46288	-479.72480	-484.34514	570.80485	-635.00038	
